# AST/ASF file generated using VICON BodyLanguage
# -----------------------------------------------
:version 1.10
:name VICON
:units
  mass 1.0
  length 0.45
  angle deg
:documentation
   .ast/.asf automatically generated from VICON data using
   VICON BodyBuilder and BodyLanguage model FoxedUp or BRILLIANT.MOD
:root
   order TX TY TZ RX RY RZ
   axis XYZ
   position 0 0 0  
   orientation 0 0 0 
:bonedata
  begin
     id 1 
     name lhipjoint
     direction 0.521689 -0.742065 0.420928 
     length 2.47002 
     axis 0 0 0  XYZ
  end
  begin
     id 2 
     name lfemur
     direction 0.34202 -0.939693 0  
     length 7.24654  
     axis 0 0 20  XYZ
    dof rx ry rz
    limits (-160.0 20.0)
           (-70.0 70.0)
           (-60.0 70.0)
  end
  begin
     id 3 
     name ltibia
     direction 0.34202 -0.939693 0   
     length 8.04849   
     axis 0 0 20   XYZ
    dof rx
    limits (-10.0 170.0)
  end
  begin
     id 4 
     name lfoot
     direction 0.0745411 -0.2048 0.975961   
     length 1.72367   
     axis -90 7.62852e-016 20   XYZ
    dof rx rz
    limits (-45.0 90.0)
           (-70.0 20.0)
  end
  begin
     id 5 
     name ltoes
     direction 1.53556e-011 -4.21901e-011 1   
     length 0.87311   
     axis -90 7.62852e-016 20   XYZ
    dof rx
    limits (-90.0 20.0)
  end
  begin
     id 6 
     name rhipjoint
     direction -0.52849 -0.738415 0.418857   
     length 2.48223  
     axis 0 0 0  XYZ 
  end
  begin
     id 7 
     name rfemur
     direction -0.34202 -0.939693 0   
     length 7.15571   
     axis 0 0 -20   XYZ
    dof rx ry rz
    limits (-160.0 20.0)
           (-70.0 70.0)
           (-70.0 60.0)
  end
  begin
     id 8 
     name rtibia
     direction -0.34202 -0.939693 0   
     length 7.81659   
     axis 0 0 -20   XYZ
    dof rx
    limits (-10.0 170.0)
 end
 begin
     id 9 
     name rfoot
     direction -0.0917348 -0.252039 0.963359   
     length 1.84382  
     axis -90 -7.62852e-016 -20   XYZ
    dof rx rz
    limits (-45.0 90.0)
           (-20.0 70.0)
  end
  begin
     id 10 
     name rtoes
     direction -1.53551e-011 -4.21879e-011 1   
     length 0.927771   
     axis -90 -7.62852e-016 -20   XYZ
    dof rx
    limits (-90.0 20.0)
  end
  begin
     id 11 
     name lowerback
     direction 0.00583058 0.999822 0.0179296   
     length 2.1429   
     axis 0 0 0   XYZ
    dof rx ry rz
    limits (-20.0 45.0)
           (-30.0 30.0)
           (-30.0 30.0)
  end
  begin
     id 12 
     name upperback
     direction -0.0137999 0.999752 -0.0175071   
     length 2.14252   
     axis 0 0 0   XYZ
    dof rx ry rz
    limits (-20.0 45.0)
           (-30.0 30.0)
           (-30.0 30.0)
  end
  begin
     id 13 
     name thorax
     direction -0.0158036 0.99955 -0.0254909   
     length 2.1383   
     axis 0 0 0   XYZ
    dof rx ry rz
    limits (-20.0 45.0)
           (-30.0 30.0)
           (-30.0 30.0)
  end
  begin
     id 14 
     name lowerneck
     direction -0.0101179 0.999403 -0.0330262   
     length 1.65808   
     axis 0 0 0   XYZ
    dof rx ry rz
    limits (-20.0 45.0)
           (-30.0 30.0)
           (-30.0 30.0)
  end
  begin
     id 15 
     name upperneck
     direction 0.0497734 0.995978 -0.074501   
     length 1.5897   
     axis 0 0 0   XYZ
    dof rx ry rz
    limits (-20.0 45.0)
           (-30.0 30.0)
           (-30.0 30.0)
  end
  begin
     id 16
     name head
     direction 0.0189524 0.999519 -0.0245438  
     length 1.74024  
     axis 0 0 0   XYZ
    dof rx ry rz
    limits (-20.0 45.0)
           (-30.0 30.0)
           (-30.0 30.0)
  end
  begin
     id 17 
     name lclavicle
     direction 0.945604 0.324422 0.0241537  
     length 3.59089  
     axis 0 0 0   XYZ
    dof ry rz
    limits (-20.0 10.0)
           (0.0 20.0)
  end
  begin
     id 18 
     name lhumerus
     direction 1 -4.48964e-011 -2.63524e-027   
     length 5.2391   
     axis 180 -30 -90   XYZ
    dof rx ry rz
    limits (-60.0 90.0)
           (-90.0 90.0)
           (-90.0 90.0)
  end
  begin
     id 19
     name lradius
     direction 1 -4.48969e-011 3.86978e-028   
     length 3.31467   
     axis 180 -30 -90   XYZ
    dof rx
    limits (-10.0 170.0)
  end
  begin
     id 20
     name lwrist
     direction 1 -4.48963e-011 7.20928e-028   
     length 1.65734   
     axis -5.52449e-016 90 90   XYZ
    dof ry
    limits (-180.0 0.0)
 end
  begin
     id 21 
     name lhand
     direction 1 -4.48964e-011 1.44186e-027   
     length 0.9659   
     axis -9.20027e-016 90 90   XYZ
    dof rx rz
    limits (-90.0 90.0)
           (-45.0 45.0)
  end
  begin
     id 22 
     name lfingers
     direction 1 -4.48965e-011 2.88371e-027   
     length 0.778733   
     axis -1.84005e-015 90 90   XYZ
    dof rx
    limits (0.0 90.0)
  end
  begin
     id 23
     name lthumb
     direction 0.707107 -6.34931e-011 0.707107   
     length 1.11811   
     axis -90 45 2.85299e-015   XYZ
    dof rx rz
    limits (-45.0 45.0)
           (-45.0 45.0)
  end
  begin
     id 24 
     name rclavicle
     direction -0.923762 0.370785 0.0958234   
     length 3.54196  
     axis 0 0 0   XYZ 
    dof ry rz
    limits (-10.0 20.0)
           (-20.0 0.0)
  end
  begin
     id 25 
     name rhumerus
     direction -1 -4.48966e-011 1.18702e-017  
     length 5.30252   
     axis 180 30 90   XYZ
    dof rx ry rz
    limits (-90.0 60.0)
           (-90.0 90.0)
           (-90.0 90.0)
  end
  begin
     id 26 
     name rradius
     direction -1 -4.48966e-011 4.46736e-027   
     length 3.67875   
     axis 180 30 90   XYZ
    dof rx
    limits (-10.0 170.0)
  end
  begin
     id 27 
     name rwrist
     direction -1 -4.48966e-011 7.20928e-028   
     length 1.83937   
     axis -5.52449e-016 -90 -90   XYZ
    dof ry
    limits (-180.0 0.0)
  end
  begin
     id 28
     name rhand
     direction -1 -4.48973e-011 1.44186e-027   
     length 0.594811   
     axis -9.20027e-016 -90 -90   XYZ
    dof rx rz
    limits (-90.0 90.0)
           (-45.0 45.0)
  end
  begin
     id 29
     name rfingers
     direction -1 -4.48963e-011 2.88371e-027   
     length 0.479552   
     axis -1.84005e-015 -90 -90   XYZ
    dof rx
    limits (0.0 90.0)
  end
  begin
     id 30
     name rthumb
     direction -0.707107 -6.34932e-011 0.707107   
     length 0.688544   
     axis -90 -45 -2.85299e-015   XYZ
    dof rx rz
    limits (-45.0 45.0)
           (-45.0 45.0)
  end
:hierarchy
  begin
    root lhipjoint rhipjoint lowerback
    lhipjoint lfemur
    lfemur ltibia
    ltibia lfoot
    lfoot ltoes
    rhipjoint rfemur
    rfemur rtibia
    rtibia rfoot
    rfoot rtoes
    lowerback upperback
    upperback thorax
    thorax lowerneck lclavicle rclavicle
    lowerneck upperneck
    upperneck head
    lclavicle lhumerus
    lhumerus lradius
    lradius lwrist
    lwrist lhand lthumb
    lhand lfingers
    rclavicle rhumerus
    rhumerus rradius
    rradius rwrist
    rwrist rhand rthumb
    rhand rfingers
  end

#!OML:ASF E:\acrobat2\Project_11_07_03\Capture day 1\Session 1\Acrobat.ASF
:FULLY-SPECIFIED
:DEGREES
1029
root 7.973 27.5783 20.8455 5.67742 -28.1837 7.70788
lowerback 13.9674 -0.125596 6.65774
upperback 7.70098 0.509012 2.54422
thorax 0.363697 0.348529 -1.15119
lowerneck -0.208792 -1.67738 -3.10654
upperneck 20.674 -1.19661 -5.90909
head 6.29468 -1.26652 -1.4315
rclavicle 1.27222e-014 -1.59028e-015
rhumerus 44.1898 19.3001 -55.3284
rradius 64.8888
rwrist -10.6146
rhand -18.6205 -13.4337
rfingers 7.12502
rthumb 7.67149 -43.2745
lclavicle 1.27222e-014 -1.59028e-015
lhumerus 27.6868 30.4331 27.1745
lradius 75.8222
lwrist 1.25789
lhand -36.9295 -57.7196
lfingers 7.12502
lthumb -10.0067 -27.9774
rfemur -30.233 -4.80423 11.4513
rtibia 22.2698
rfoot -5.20578 -13.2764
rtoes -7.90157
lfemur -37.1967 -8.99256 -22.3978
ltibia 51.5274
lfoot 7.71331 -13.6307
ltoes 38.2976
1030
root 7.91896 27.6101 20.9615 5.56983 -29.0285 7.38304
lowerback 13.9496 -0.100311 6.59173
upperback 7.65801 0.532336 2.5244
thorax 0.327676 0.355536 -1.13849
lowerneck -0.276734 -1.45557 -3.01231
upperneck 21.2649 -0.847869 -6.08916
head 6.49998 -1.12748 -1.49677
rclavicle -3.65764e-014 -9.54166e-015
rhumerus 43.0244 19.0598 -56.153
rradius 66.2026
rwrist -10.7949
rhand -19.1367 -13.1998
rfingers 7.12502
rthumb 7.17319 -43.0582
lclavicle -3.65764e-014 -9.54166e-015
lhumerus 26.6173 30.1423 27.1283
lradius 75.092
lwrist 1.62711
lhand -36.8808 -58.2629
lfingers 7.12502
lthumb -9.95967 -28.5186
rfemur -29.6944 -4.31608 11.6077
rtibia 21.2475
rfoot -6.26481 -13.3588
rtoes -6.91584
lfemur -34.9795 -9.70863 -22.3961
ltibia 49.9245
lfoot 6.62384 -14.1228
ltoes 38.7892
1031
root 7.86726 27.6398 21.0842 5.59032 -30.0503 7.07447
lowerback 13.7783 -0.0367904 6.57813
upperback 7.59831 0.599322 2.47841
thorax 0.360174 0.388145 -1.18722
lowerneck -0.352622 -1.21899 -2.98183
upperneck 21.6316 -0.500046 -6.17124
head 6.63739 -0.980835 -1.51605
rclavicle -5.725e-014 -3.18055e-014
rhumerus 42.0593 18.8839 -56.7696
rradius 67.3708
rwrist -10.9588
rhand -19.6548 -12.8642
rfingers 7.12502
rthumb 6.67308 -42.7391
lclavicle -5.725e-014 -3.18055e-014
lhumerus 25.3129 29.976 26.9551
lradius 74.4043
lwrist 1.77893
lhand -36.9525 -58.7231
lfingers 7.12502
lthumb -10.0288 -28.9821
rfemur -29.3591 -4.09471 11.8586
rtibia 20.3986
rfoot -7.39481 -13.3585
rtoes -6.64293
lfemur -32.6662 -10.3746 -22.4675
ltibia 47.4623
lfoot 4.62136 -14.8893
ltoes 38.8366
1032
root 7.81719 27.6655 21.212 5.73556 -31.1974 6.82176
lowerback 13.4457 0.0511136 6.57588
upperback 7.51001 0.688119 2.40129
thorax 0.450813 0.434229 -1.2762
lowerneck -0.463038 -0.971734 -2.95203
upperneck 21.8513 -0.140861 -6.25519
head 6.73426 -0.825576 -1.53263
rclavicle -1.51076e-014 -1.27222e-014
rhumerus 41.3425 18.7661 -57.2172
rradius 68.3094
rwrist -11.0504
rhand -20.1412 -12.4513
rfingers 7.12502
rthumb 6.20348 -42.3404
lclavicle -1.51076e-014 -1.27222e-014
lhumerus 23.7533 29.9543 26.6426
lradius 73.7978
lwrist 1.80652
lhand -37.0732 -59.1457
lfingers 7.12502
lthumb -10.1453 -29.4103
rfemur -29.254 -4.12017 12.1325
rtibia 19.787
rfoot -8.51199 -13.2789
rtoes -6.81143
lfemur -30.3758 -10.9565 -22.6553
ltibia 44.3272
lfoot 1.7759 -15.74
ltoes 38.6732
1033
root 7.768 27.6854 21.342 5.96757 -32.4027 6.64681
lowerback 12.9889 0.143394 6.55553
upperback 7.39113 0.77337 2.29785
thorax 0.575806 0.479655 -1.38036
lowerneck -0.557586 -0.712267 -2.97563
upperneck 21.8815 0.214778 -6.25615
head 6.76775 -0.663926 -1.51001
rclavicle 3.57812e-014 1.59028e-015
rhumerus 40.9174 18.7206 -57.4391
rradius 69.0191
rwrist -11.0676
rhand -20.6165 -12.0711
rfingers 7.12502
rthumb 5.74462 -41.9732
lclavicle 3.57812e-014 1.59028e-015
lhumerus 21.9239 30.0376 26.1674
lradius 73.3902
lwrist 1.82427
lhand -37.2694 -59.4698
lfingers 7.12502
lthumb -10.3345 -29.7437
rfemur -29.3682 -4.32279 12.3677
rtibia 19.4997
rfoot -9.55598 -13.127
rtoes -7.02546
lfemur -28.2463 -11.4018 -22.9745
ltibia 40.8355
lfoot -1.7077 -16.4703
ltoes 38.2614
1034
root 7.7192 27.699 21.469 6.26715 -33.5803 6.51937
lowerback 12.4742 0.221715 6.53658
upperback 7.23922 0.839528 2.17667
thorax 0.697038 0.51597 -1.50011
lowerneck -0.588858 -0.452943 -3.03054
upperneck 21.7333 0.548197 -6.18743
head 6.73163 -0.503012 -1.45769
rclavicle -2.06736e-014 1.59028e-014
rhumerus 40.7091 18.6889 -57.5679
rradius 69.4953
rwrist -10.8767
rhand -21.0631 -11.7762
rfingers 7.12502
rthumb 5.31346 -41.6896
lclavicle -2.06736e-014 1.59028e-014
lhumerus 19.9118 30.2173 25.5578
lradius 73.1987
lwrist 1.90885
lhand -37.4996 -59.7247
lfingers 7.12502
lthumb -10.5566 -30.0098
rfemur -29.7035 -4.60915 12.5694
rtibia 19.6457
rfoot -10.4378 -12.9235
rtoes -7.11597
lfemur -26.4006 -11.6437 -23.3667
ltibia 37.3122
lfoot -5.26305 -16.8903
ltoes 38.0572
1035
root 7.67045 27.7067 21.5907 6.52166 -34.6895 6.49746
lowerback 11.9806 0.277335 6.46894
upperback 7.07995 0.874912 2.02835
thorax 0.797153 0.535766 -1.61693
lowerneck -0.645126 -0.202768 -3.02409
upperneck 21.5305 0.870508 -6.15241
head 6.6813 -0.343277 -1.42675
rclavicle -3.97569e-014 2.38542e-014
rhumerus 40.7237 18.6604 -57.5444
rradius 69.7972
rwrist -10.5009
rhand -21.491 -11.6794
rfingers 7.12502
rthumb 4.90028 -41.6028
lclavicle -3.97569e-014 2.38542e-014
lhumerus 17.7966 30.4609 24.8442
lradius 73.1982
lwrist 2.08463
lhand -37.7589 -59.9118
lfingers 7.12502
lthumb -10.8068 -30.2098
rfemur -30.1917 -4.91578 12.6539
rtibia 20.3017
rfoot -11.0882 -12.6347
rtoes -6.98279
lfemur -24.845 -11.5997 -23.8829
ltibia 34.0044
lfoot -8.48732 -16.9925
ltoes 38.1401
1036
root 7.6219 27.7086 21.7032 6.71704 -35.6553 6.55618
lowerback 11.5504 0.297919 6.37266
upperback 6.92017 0.86858 1.86448
thorax 0.859867 0.533463 -1.72978
lowerneck -0.663736 0.0264236 -2.97506
upperneck 21.2361 1.15597 -6.12096
head 6.59392 -0.193804 -1.40527
rclavicle 4.77083e-015 -6.04305e-014
rhumerus 40.8751 18.5796 -57.4341
rradius 69.9841
rwrist -9.93794
rhand -21.8372 -11.7377
rfingers 7.12502
rthumb 4.56599 -41.6685
lclavicle 4.77083e-015 -6.04305e-014
lhumerus 15.6845 30.7493 24.1061
lradius 73.3037
lwrist 2.34874
lhand -38.0033 -60.0555
lfingers 7.12502
lthumb -11.0424 -30.366
rfemur -30.7953 -5.21137 12.6371
rtibia 21.4793
rfoot -11.5 -12.2418
rtoes -6.57503
lfemur -23.6306 -11.1703 -24.477
ltibia 31.1066
lfoot -10.9238 -16.9115
ltoes 38.6794
1037
root 7.5745 27.7053 21.8037 6.78075 -36.426 6.74669
lowerback 11.2462 0.276635 6.20474
upperback 6.77248 0.811501 1.68016
thorax 0.862299 0.502871 -1.82008
lowerneck -0.681418 0.217746 -2.86446
upperneck 20.8766 1.38488 -6.09736
head 6.48452 -0.0643385 -1.39956
rclavicle 4.69132e-014 1.11319e-014
rhumerus 41.0924 18.4036 -57.2828
rradius 70.1058
rwrist -9.24581
rhand -22.0426 -11.8592
rfingers 7.12502
rthumb 4.36763 -41.7942
lclavicle 4.69132e-014 1.11319e-014
lhumerus 13.6447 31.0463 23.4059
lradius 73.4634
lwrist 2.58771
lhand -38.294 -60.1719
lfingers 7.12502
lthumb -11.3228 -30.4976
rfemur -31.4493 -5.51286 12.4635
rtibia 23.1288
rfoot -11.6785 -11.7235
rtoes -6.12359
lfemur -22.7528 -10.3235 -25.1647
ltibia 28.7261
lfoot -12.4562 -16.7722
ltoes 39.3774
1038
root 7.52955 27.6981 21.8938 6.65947 -36.9738 7.09728
lowerback 11.0879 0.209698 5.97172
upperback 6.65461 0.698846 1.47074
thorax 0.812009 0.44229 -1.89602
lowerneck -0.689904 0.378317 -2.70139
upperneck 20.5133 1.57504 -6.11052
head 6.37244 0.0485692 -1.41701
rclavicle -1.66979e-014 4.6118e-014
rhumerus 41.3304 18.116 -57.0945
rradius 70.1928
rwrist -8.5103
rhand -22.0838 -11.9597
rfingers 7.12502
rthumb 4.32782 -41.8955
lclavicle -1.66979e-014 4.6118e-014
lhumerus 11.6988 31.3375 22.7876
lradius 73.6702
lwrist 2.79813
lhand -38.6016 -60.2377
lfingers 7.12502
lthumb -11.6195 -30.5798
rfemur -32.0688 -5.91238 12.1237
rtibia 25.1795
rfoot -11.659 -11.0074
rtoes -5.8638
lfemur -22.1662 -9.09252 -25.9711
ltibia 26.896
lfoot -12.9153 -16.8221
ltoes 40.6635
1039
root 7.489 27.6876 21.9745 6.39142 -37.3519 7.55871
lowerback 11.0781 0.120193 5.71608
upperback 6.56335 0.56355 1.24994
thorax 0.707625 0.368912 -1.96988
lowerneck -0.735119 0.498528 -2.51241
upperneck 20.1805 1.71561 -6.13793
head 6.27639 0.137353 -1.44659
rclavicle 6.59965e-014 1.59028e-015
rhumerus 41.5571 17.7349 -56.8582
rradius 70.2564
rwrist -7.8184
rhand -21.9745 -11.9923
rfingers 7.12502
rthumb 4.43338 -41.9259
lclavicle 6.59965e-014 1.59028e-015
lhumerus 9.79782 31.571 22.259
lradius 73.9721
lwrist 2.99515
lhand -38.9357 -60.2966
lfingers 7.12502
lthumb -11.9417 -30.6572
rfemur -32.6563 -6.37763 11.6795
rtibia 27.5462
rfoot -11.4963 -10.0986
rtoes -5.90042
lfemur -21.9001 -7.55064 -26.8296
ltibia 25.6628
lfoot -12.3551 -17.1245
ltoes 42.3553
